<?xml version="1.0" encoding="UTF-8" standalone="no"?>
<svg
   xmlns:dc="http://purl.org/dc/elements/1.1/"
   xmlns:cc="http://creativecommons.org/ns#"
   xmlns:rdf="http://www.w3.org/1999/02/22-rdf-syntax-ns#"
   xmlns:svg="http://www.w3.org/2000/svg"
   xmlns="http://www.w3.org/2000/svg"
   xmlns:sodipodi="http://sodipodi.sourceforge.net/DTD/sodipodi-0.dtd"
   xmlns:inkscape="http://www.inkscape.org/namespaces/inkscape"
   width="384pt"
   height="384pt"
   version="1.1"
   viewBox="0 0 384 384"
   id="svg152"
   sodipodi:docname="tortoise.svg"
   inkscape:version="0.92.5 (2060ec1f9f, 2020-04-08)">
  <metadata
     id="metadata156">
    <rdf:RDF>
      <cc:Work
         rdf:about="">
        <dc:format>image/svg+xml</dc:format>
        <dc:type
           rdf:resource="http://purl.org/dc/dcmitype/StillImage" />
        <dc:title></dc:title>
      </cc:Work>
    </rdf:RDF>
  </metadata>
  <sodipodi:namedview
     pagecolor="#ffffff"
     bordercolor="#666666"
     borderopacity="1"
     objecttolerance="10"
     gridtolerance="10"
     guidetolerance="10"
     inkscape:pageopacity="0"
     inkscape:pageshadow="2"
     inkscape:window-width="3840"
     inkscape:window-height="2283"
     id="namedview154"
     showgrid="false"
     inkscape:zoom="2.0228571"
     inkscape:cx="347.72651"
     inkscape:cy="35.537489"
     inkscape:window-x="0"
     inkscape:window-y="2160"
     inkscape:window-maximized="1"
     inkscape:current-layer="svg152"
     fit-margin-top="0"
     fit-margin-left="0"
     fit-margin-right="0"
     fit-margin-bottom="0" />
  <defs
     id="defs68">
    <symbol
       id="v"
       overflow="visible"
       style="overflow:visible">
      <path
         d="M 3.6562,-0.21875 C 3.4687,-0.125 3.26948,-0.05078 3.06245,0 2.86323,0.050781 2.6562,0.078125 2.43745,0.078125 c -0.66797,0 -1.1992,-0.17969 -1.5938,-0.54688 -0.38672,-0.375 -0.57812,-0.87891 -0.57812,-1.5156 0,-0.64453 0.19141,-1.1484 0.57812,-1.5156 0.39453,-0.375 0.92578,-0.5625 1.5938,-0.5625 0.21875,0 0.42578,0.027344 0.625,0.078125 0.20703,0.054687 0.40625,0.125 0.59375,0.21875 v 0.82812 c -0.1875,-0.125 -0.375,-0.21875 -0.5625,-0.28125 -0.17969,-0.0625 -0.37109,-0.09375 -0.57812,-0.09375 -0.36719,0 -0.65625,0.12109 -0.875,0.35938 -0.21094,0.23047 -0.3125,0.55469 -0.3125,0.96875 0,0.40625 0.10156,0.73047 0.3125,0.96875 0.21875,0.23047 0.50781,0.34375 0.875,0.34375 0.20703,0 0.39844,-0.023437 0.57812,-0.078125 0.1875,-0.0625 0.375,-0.16016 0.5625,-0.29688 z"
         id="path2"
         inkscape:connector-curvature="0" />
    </symbol>
    <symbol
       id="d"
       overflow="visible"
       style="overflow:visible">
      <path
         d="M 2.6875,-2.1719 C 2.601562,-2.210963 2.51953,-2.242213 2.4375,-2.26565 2.351562,-2.285181 2.26953,-2.2969 2.1875,-2.2969 c -0.25,0 -0.44531,0.085937 -0.57812,0.25 -0.125,0.15625 -0.1875,0.38281 -0.1875,0.67188 V -2e-5 H 0.45313 v -2.9844 h 0.96875 v 0.48438 c 0.11328,-0.19531 0.25,-0.33594 0.40625,-0.42188 0.16406,-0.09375 0.35938,-0.14062 0.57812,-0.14062 h 0.10938 c 0.039063,0 0.09375,0.00781 0.15625,0.015625 z"
         id="path5"
         inkscape:connector-curvature="0" />
    </symbol>
    <symbol
       id="a"
       overflow="visible"
       style="overflow:visible">
      <path
         d="m 3.4375,-1.5 v 0.26562 H 1.2031 c 0.03125,0.23047 0.11328,0.40234 0.25,0.51562 0.13281,0.10547 0.32812,0.15625 0.57812,0.15625 0.20703,0 0.41406,-0.023438 0.625,-0.078125 0.20703,-0.0625 0.42188,-0.15625 0.64062,-0.28125 v 0.73438 c -0.21875,0.09375 -0.44531,0.16406 -0.67188,0.20312 -0.23047,0.039062 -0.45312,0.0625 -0.67188,0.0625 -0.54297,0 -0.96484,-0.13281 -1.2656,-0.40625 -0.30469,-0.28125 -0.45312,-0.67188 -0.45312,-1.1719 0,-0.47656 0.14453,-0.85938 0.4375,-1.1406 0.30078,-0.28125 0.70703,-0.42188 1.2188,-0.42188 0.46875,0 0.84375,0.14062 1.125,0.42188 0.28125,0.28126 0.42188,0.66406 0.42188,1.1406 z M 2.46875,-1.82812 C 2.46875,-2.0039 2.410156,-2.14453 2.29687,-2.25 2.1914,-2.36328 2.05468,-2.42188 1.89062,-2.42188 c -0.1875,0 -0.33984,0.054687 -0.45312,0.15625 -0.11719,0.10547 -0.1875,0.25 -0.21875,0.4375 z"
         id="path8"
         inkscape:connector-curvature="0" />
    </symbol>
    <symbol
       id="k"
       overflow="visible"
       style="overflow:visible">
      <path
         d="m 1.7969,-1.3438 c -0.19922,0 -0.35156,0.039062 -0.45312,0.10938 -0.09375,0.0625 -0.14062,0.16406 -0.14062,0.29688 0,0.11719 0.035156,0.21094 0.10938,0.28125 0.082031,0.0625 0.19531,0.09375 0.34375,0.09375 0.17578,0 0.32812,-0.0625 0.45312,-0.1875 0.125,-0.125 0.1875,-0.28516 0.1875,-0.48438 V -1.3438 Z M 3.2657,-1.70318 V -8e-5 H 2.29695 v -0.4375 c -0.125,0.17969 -0.27344,0.30859 -0.4375,0.39062 -0.15625,0.082031 -0.35156,0.125 -0.57812,0.125 -0.3125,0 -0.57031,-0.085938 -0.76562,-0.26562 -0.1875,-0.1875 -0.28125,-0.42188 -0.28125,-0.70312 0,-0.35156 0.11719,-0.61328 0.35938,-0.78125 0.23828,-0.16406 0.61719,-0.25 1.1406,-0.25 h 0.5625 v -0.0625 c 0,-0.15625 -0.0625,-0.26562 -0.1875,-0.32812 -0.11719,-0.070312 -0.29688,-0.10938 -0.54688,-0.10938 -0.21094,0 -0.40234,0.023437 -0.57812,0.0625 -0.17969,0.042969 -0.33984,0.10156 -0.48438,0.17188 v -0.71875 c 0.19531,-0.050781 0.39844,-0.085938 0.60938,-0.10938 0.20703,-0.03125 0.41406,-0.046875 0.625,-0.046875 0.53906,0 0.92969,0.10938 1.1719,0.32812 0.23828,0.21094 0.35938,0.55469 0.35938,1.0312 z"
         id="path11"
         inkscape:connector-curvature="0" />
    </symbol>
    <symbol
       id="b"
       overflow="visible"
       style="overflow:visible">
      <path
         d="m 1.5,-3.8438 v 0.85938 h 0.98438 v 0.67188 H 1.5 v 1.2812 c 0,0.13672 0.023438,0.23047 0.078125,0.28125 0.0625,0.042969 0.17578,0.0625 0.34375,0.0625 h 0.48438 V -9e-5 h -0.8125 c -0.38672,0 -0.65625,-0.078125 -0.8125,-0.23438 -0.15625,-0.156255 -0.23438,-0.42188 -0.23438,-0.79688 v -1.2812 h -0.46875 v -0.67188 h 0.46875 v -0.85938 z"
         id="path14"
         inkscape:connector-curvature="0" />
    </symbol>
    <symbol
       id="j"
       overflow="visible"
       style="overflow:visible">
      <path
         d="M 2.5,-2.5469 V -4.1563 H 3.45312 V -1e-4 H 2.5 v -0.4375 c -0.13672,0.17969 -0.28125,0.30859 -0.4375,0.39062 -0.15625,0.082031 -0.33984,0.125 -0.54688,0.125 -0.375,0 -0.68359,-0.14453 -0.92188,-0.4375 -0.23047,-0.28906 -0.34375,-0.67188 -0.34375,-1.1406 0,-0.45703 0.11328,-0.83203 0.34375,-1.125 0.23828,-0.28906 0.54688,-0.4375 0.92188,-0.4375 0.19531,0 0.375,0.042969 0.53125,0.125 0.16406,0.085938 0.31641,0.21484 0.45312,0.39062 z m -0.64062,1.9375 c 0.20703,0 0.36328,-0.070313 0.46875,-0.21875 0.11328,-0.15625 0.17188,-0.37891 0.17188,-0.67188 0,-0.28125 -0.058594,-0.49219 -0.17188,-0.64062 -0.10547,-0.15625 -0.26172,-0.23438 -0.46875,-0.23438 -0.19922,0 -0.35547,0.078125 -0.46875,0.23438 -0.10547,0.14844 -0.15625,0.35938 -0.15625,0.64062 0,0.29297 0.050781,0.51562 0.15625,0.67188 0.11328,0.14844 0.26953,0.21875 0.46875,0.21875 z"
         id="path17"
         inkscape:connector-curvature="0" />
    </symbol>
    <symbol
       id="i"
       overflow="visible"
       style="overflow:visible">
      <path
         d="m 2.0469,-0.60938 c 0.20703,0 0.36328,-0.070313 0.46875,-0.21875 0.11328,-0.15625 0.17188,-0.37891 0.17188,-0.67188 0,-0.28125 -0.058594,-0.49219 -0.17188,-0.64062 -0.10547,-0.15625 -0.26172,-0.23438 -0.46875,-0.23438 -0.19922,0 -0.35547,0.078125 -0.46875,0.23438 -0.10547,0.14844 -0.15625,0.35938 -0.15625,0.64062 0,0.29297 0.050781,0.51562 0.15625,0.67188 0.11328,0.14844 0.26953,0.21875 0.46875,0.21875 z m -0.625,-1.9375 c 0.125,-0.17578 0.26562,-0.30469 0.42188,-0.39062 0.16406,-0.082031 0.35156,-0.125 0.5625,-0.125 0.36328,0 0.66406,0.14844 0.90625,0.4375 0.23828,0.29297 0.35938,0.66797 0.35938,1.125 0,0.46875 -0.12109,0.85156 -0.35938,1.1406 -0.24219,0.29297 -0.54297,0.4375 -0.90625,0.4375 -0.21094,0 -0.39844,-0.042969 -0.5625,-0.125 C 1.68753,-0.128931 1.5469,-0.25784 1.4219,-0.43752 V -2e-5 H 0.45315 v -4.1562 H 1.4219 Z"
         id="path20"
         inkscape:connector-curvature="0" />
    </symbol>
    <symbol
       id="h"
       overflow="visible"
       style="overflow:visible">
      <path
         d="m 0.0625,-2.9844 h 0.95312 l 0.8125,2.0156 0.6875,-2.0156 H 3.46874 L 2.20314,0.2812 C 2.07814,0.61323 1.9297,0.84761 1.76564,0.98432 1.59767,1.11713 1.37502,1.18744 1.09376,1.18744 H 0.54688 V 0.54682 h 0.29688 c 0.16406,0 0.28516,-0.027344 0.35938,-0.078125 0.070313,-0.054688 0.12891,-0.14062 0.17188,-0.26562 l 0.03125,-0.09375 z"
         id="path23"
         inkscape:connector-curvature="0" />
    </symbol>
    <symbol
       id="g"
       overflow="visible"
       style="overflow:visible">
      <path
         d="m 0.5,-3.9844 h 2.7812 v 0.78125 h -1.75 v 0.73438 h 1.6406 v 0.78125 H 1.5312 v 0.90625 H 3.3281 V -2e-5 H 0.5 Z"
         id="path26"
         inkscape:connector-curvature="0" />
    </symbol>
    <symbol
       id="e"
       overflow="visible"
       style="overflow:visible">
      <path
         d="m 2.875,-2.8906 v 0.76562 C 2.75,-2.207011 2.61719,-2.26951 2.48438,-2.31248 2.34766,-2.351542 2.21094,-2.37498 2.07813,-2.37498 c -0.27344,0 -0.48047,0.078125 -0.625,0.23438 -0.14844,0.15625 -0.21875,0.37109 -0.21875,0.64062 0,0.28125 0.070313,0.5 0.21875,0.65625 0.14453,0.15625 0.35156,0.23438 0.625,0.23438 0.14453,0 0.28516,-0.019531 0.42188,-0.0625 0.13281,-0.039063 0.25781,-0.10938 0.375,-0.20312 v 0.78125 c -0.14844,0.0625 -0.29688,0.10156 -0.45312,0.125 -0.15625,0.03125 -0.3125,0.046875 -0.46875,0.046875 -0.54297,0 -0.96484,-0.13281 -1.2656,-0.40625 -0.30469,-0.28125 -0.45312,-0.67188 -0.45312,-1.1719 0,-0.48828 0.14844,-0.86719 0.45312,-1.1406 0.30078,-0.28125 0.72266,-0.42188 1.2656,-0.42188 0.15625,0 0.3125,0.015625 0.46875,0.046875 0.15625,0.023437 0.30469,0.0625 0.45312,0.125 z"
         id="path29"
         inkscape:connector-curvature="0" />
    </symbol>
    <symbol
       id="c"
       overflow="visible"
       style="overflow:visible">
      <path
         d="m 1.875,-2.375 c -0.21094,0 -0.37109,0.078125 -0.48438,0.23438 -0.10547,0.14844 -0.15625,0.35938 -0.15625,0.64062 0,0.29297 0.050781,0.51562 0.15625,0.67188 0.11328,0.14844 0.27344,0.21875 0.48438,0.21875 0.20703,0 0.36719,-0.070313 0.48438,-0.21875 C 2.47266,-0.98437 2.53126,-1.20703 2.53126,-1.5 2.53126,-1.78125 2.472666,-1.99219 2.35938,-2.14062 2.24219,-2.29687 2.08204,-2.375 1.875,-2.375 Z m 0,-0.6875 c 0.51953,0 0.92188,0.14062 1.2031,0.42188 0.28906,0.27344 0.4375,0.65234 0.4375,1.1406 0,0.5 -0.14844,0.89062 -0.4375,1.1719 C 2.79685,-0.05468 2.39451,0.07813 1.875,0.07813 1.36328,0.07813 0.96094,-0.05468 0.6719,-0.32812 0.37893,-0.60937 0.2344,-1 0.2344,-1.50002 c 0,-0.48828 0.14453,-0.86719 0.4375,-1.1406 C 0.96096,-2.92187 1.36331,-3.0625 1.875,-3.0625 Z"
         id="path32"
         inkscape:connector-curvature="0" />
    </symbol>
    <symbol
       id="f"
       overflow="visible"
       style="overflow:visible">
      <path
         d="M 3.4688,-1.8281 V 0 H 2.50005 v -1.3906 c 0,-0.25781 -0.00781,-0.4375 -0.015625,-0.53125 -0.011719,-0.10156 -0.03125,-0.17578 -0.0625,-0.21875 -0.03125,-0.0625 -0.085937,-0.10938 -0.15625,-0.14062 -0.0625,-0.039062 -0.13281,-0.0625 -0.20312,-0.0625 -0.21094,0 -0.37109,0.078125 -0.48438,0.23438 -0.10547,0.15625 -0.15625,0.37109 -0.15625,0.64062 V 8e-5 h -0.96875 v -2.9844 h 0.96875 v 0.4375 c 0.13281,-0.17578 0.28516,-0.30469 0.45312,-0.39062 0.16406,-0.082031 0.34375,-0.125 0.53125,-0.125 0.34375,0 0.60156,0.10938 0.78125,0.32812 0.1875,0.21094 0.28125,0.51172 0.28125,0.90625 z"
         id="path35"
         inkscape:connector-curvature="0" />
    </symbol>
    <symbol
       id="u"
       overflow="visible"
       style="overflow:visible">
      <path
         d="M 1.4219,-0.4375 V 1.1406 H 0.45315 v -4.125 H 1.4219 v 0.4375 c 0.125,-0.17578 0.26562,-0.30469 0.42188,-0.39062 0.16406,-0.082031 0.35156,-0.125 0.5625,-0.125 0.36328,0 0.66406,0.14844 0.90625,0.4375 0.23828,0.29297 0.35938,0.66797 0.35938,1.125 0,0.46875 -0.12109,0.85156 -0.35938,1.1406 -0.24219,0.29297 -0.54297,0.4375 -0.90625,0.4375 -0.21094,0 -0.39844,-0.042969 -0.5625,-0.125 C 1.68753,-0.128951 1.5469,-0.25786 1.4219,-0.43754 Z m 0.625,-1.9375 c -0.19922,0 -0.35547,0.078125 -0.46875,0.23438 C 1.47268,-1.99218 1.4219,-1.78124 1.4219,-1.5 c 0,0.29297 0.050781,0.51562 0.15625,0.67188 0.11328,0.14844 0.26953,0.21875 0.46875,0.21875 0.20703,0 0.36328,-0.070313 0.46875,-0.21875 C 2.62893,-0.98437 2.68753,-1.20703 2.68753,-1.5 2.68753,-1.78125 2.628936,-1.99219 2.51565,-2.14062 2.41018,-2.29687 2.25393,-2.375 2.0469,-2.375 Z"
         id="path38"
         inkscape:connector-curvature="0" />
    </symbol>
    <symbol
       id="t"
       overflow="visible"
       style="overflow:visible">
      <path
         d="M 0.45312,-2.9844 H 1.42187 V 0 H 0.45312 Z m 0,-1.1719 h 0.96875 v 0.78125 H 0.45312 Z"
         id="path41"
         inkscape:connector-curvature="0" />
    </symbol>
    <symbol
       id="s"
       overflow="visible"
       style="overflow:visible">
      <path
         d="m 0.078125,-2.9844 h 0.95312 l 0.75,2.0625 0.75,-2.0625 h 0.95312 L 2.312465,0 h -1.0625 z"
         id="path44"
         inkscape:connector-curvature="0" />
    </symbol>
    <symbol
       id="r"
       overflow="visible"
       style="overflow:visible">
      <path
         d="m 2.4219,-4.1562 v 0.625 H 1.90628 c -0.13672,0 -0.23438,0.027344 -0.29688,0.078125 -0.054687,0.054687 -0.078125,0.13672 -0.078125,0.25 v 0.21875 h 0.82812 v 0.67188 h -0.82812 v 2.3125 h -0.95312 v -2.3125 h -0.46875 v -0.67188 h 0.46875 v -0.21875 c 0,-0.32031 0.085937,-0.5625 0.26562,-0.71875 0.1875,-0.15625 0.47266,-0.23438 0.85938,-0.23438 z"
         id="path47"
         inkscape:connector-curvature="0" />
    </symbol>
    <symbol
       id="q"
       overflow="visible"
       style="overflow:visible">
      <path
         d="m 3.2344,-2.5 c 0.11328,-0.17578 0.25391,-0.3125 0.42188,-0.40625 0.16406,-0.10156 0.35156,-0.15625 0.5625,-0.15625 0.33203,0 0.58594,0.10938 0.76562,0.32812 0.1875,0.21094 0.28125,0.51172 0.28125,0.90625 V -3e-5 H 4.2969 v -1.5625 c 0.00781,-0.019531 0.015625,-0.039062 0.015625,-0.0625 v -0.10938 c 0,-0.21875 -0.03125,-0.375 -0.09375,-0.46875 -0.0625,-0.09375 -0.16406,-0.14062 -0.29688,-0.14062 -0.1875,0 -0.33594,0.078125 -0.4375,0.23438 -0.09375,0.14844 -0.14062,0.35938 -0.14062,0.64062 V 2e-5 h -0.96875 v -1.5625 c 0,-0.33203 -0.03125,-0.54688 -0.09375,-0.64062 -0.054688,-0.09375 -0.15234,-0.14062 -0.29688,-0.14062 -0.17969,0 -0.32031,0.078125 -0.42188,0.23438 -0.09375,0.14844 -0.14062,0.35938 -0.14062,0.64062 V 8e-5 h -0.96875 v -2.9844 h 0.96875 v 0.4375 c 0.11328,-0.17578 0.24219,-0.30469 0.39062,-0.39062 0.15625,-0.082031 0.32812,-0.125 0.51562,-0.125 0.20703,0 0.39062,0.054688 0.54688,0.15625 0.15625,0.09375 0.27344,0.23047 0.35938,0.40625 z"
         id="path50"
         inkscape:connector-curvature="0" />
    </symbol>
    <symbol
       id="p"
       overflow="visible"
       style="overflow:visible">
      <path
         d="M 3.4688,-1.8281 V 0 H 2.50005 v -1.3906 c 0,-0.25781 -0.00781,-0.4375 -0.015625,-0.53125 -0.011719,-0.10156 -0.03125,-0.17578 -0.0625,-0.21875 -0.03125,-0.0625 -0.085937,-0.10938 -0.15625,-0.14062 -0.0625,-0.039062 -0.13281,-0.0625 -0.20312,-0.0625 -0.21094,0 -0.37109,0.078125 -0.48438,0.23438 -0.10547,0.15625 -0.15625,0.37109 -0.15625,0.64062 V 8e-5 h -0.96875 v -4.1562 h 0.96875 v 1.6094 c 0.13281,-0.17578 0.28516,-0.30469 0.45312,-0.39062 0.16406,-0.082031 0.34375,-0.125 0.53125,-0.125 0.34375,0 0.60156,0.10938 0.78125,0.32812 0.1875,0.21094 0.28125,0.51172 0.28125,0.90625 z"
         id="path53"
         inkscape:connector-curvature="0" />
    </symbol>
    <symbol
       id="o"
       overflow="visible"
       style="overflow:visible">
      <path
         d="M 0.5,-3.9844 H 1.6562 L 3.0937,-1.25 V -3.9844 H 4.07808 V 0 H 2.92188 L 1.48438,-2.7344 V 0 H 0.5 Z"
         id="path56"
         inkscape:connector-curvature="0" />
    </symbol>
    <symbol
       id="n"
       overflow="visible"
       style="overflow:visible">
      <path
         d="m 0.42188,-1.1719 v -1.8125 h 0.96875 v 0.29688 0.60938 0.48438 c 0,0.24219 0.00391,0.41797 0.015625,0.53125 0.00781,0.10547 0.03125,0.17969 0.0625,0.21875 0.039062,0.0625 0.09375,0.11719 0.15625,0.15625 0.0625,0.03125 0.13281,0.046875 0.21875,0.046875 0.19531,0 0.35156,-0.078125 0.46875,-0.23438 0.11328,-0.15625 0.17188,-0.36719 0.17188,-0.64062 v -1.4688 h 0.95312 v 2.9844 h -0.95312 v -0.4375 c -0.14844,0.17969 -0.30469,0.30859 -0.46875,0.39062 -0.15625,0.082031 -0.33594,0.125 -0.53125,0.125 -0.34375,0 -0.60938,-0.10156 -0.79688,-0.3125 -0.17969,-0.21875 -0.26562,-0.53125 -0.26562,-0.9375 z"
         id="path59"
         inkscape:connector-curvature="0" />
    </symbol>
    <symbol
       id="m"
       overflow="visible"
       style="overflow:visible">
      <path
         d="m 0.5,-3.9844 h 1.7031 c 0.50781,0 0.89844,0.11719 1.1719,0.34375 0.26953,0.21875 0.40625,0.53906 0.40625,0.95312 0,0.41797 -0.13672,0.74219 -0.40625,0.96875 -0.27344,0.21875 -0.66406,0.32812 -1.1719,0.32812 H 1.53122 V -6e-5 h -1.0312 z m 1.0312,0.75 v 1.1094 h 0.5625 c 0.19531,0 0.34766,-0.046875 0.45312,-0.14062 C 2.6601,-2.36718 2.7187,-2.50781 2.7187,-2.6875 2.7187,-2.86328 2.660106,-3 2.54682,-3.09375 2.44135,-3.1875 2.28901,-3.23437 2.0937,-3.23437 Z"
         id="path62"
         inkscape:connector-curvature="0" />
    </symbol>
    <symbol
       id="l"
       overflow="visible"
       style="overflow:visible">
      <path
         d="m 0.45312,-2.9844 h 0.96875 v 2.9375 c 0,0.39453 -0.10156,0.69531 -0.29688,0.90625 C 0.93749,1.0781 0.66015,1.18747 0.29687,1.18747 H -0.18751 V 0.54685 h 0.17188 c 0.17578,0 0.29688,-0.042969 0.35938,-0.125 C 0.414062,0.347631 0.45313,0.19138 0.45313,-0.0469 Z m 0,-1.1719 h 0.96875 v 0.78125 H 0.45312 Z"
         id="path65"
         inkscape:connector-curvature="0" />
    </symbol>
  </defs>
  <g
     id="g864"
     transform="matrix(0.79214149,0,0,0.79214149,0,77.960792)">
    <path
       d="m 23.270056,195.92929 c -1.6172,-1.0977 -3.5977,-2.1133 -5.0391,-3.25 -3.1523,-1.043 -5.4336,-4.0234 -5.4336,-7.5195 0,-0.11719 0.0195,-0.23047 0.0195,-0.34766 0,-0.13672 -0.0195,-0.25 -0.0195,-0.38672 0.125,-31.383 8.5078,-60.938 23.09,-86.836 0.0664,-0.16016 0.0547,-0.33594 0.13281,-0.49609 0.0898,-0.17969 0.25,-0.28516 0.34766,-0.45312 14.398,-25.23 34.824,-46.824 59.289,-63.23 0.50781,-0.46094 1.0273,-0.85156 1.625,-1.1602 C 128.25883,11.938 165.63683,0 205.85183,0 c 29.066,0 56.609,6.2617 81.359,17.348 0.65234,0.21484 1.2305,0.5625 1.8203,0.95312 34.082,15.699 62.406,40.773 81.848,71.652 0.30078,0.28516 0.66797,0.46875 0.92578,0.80859 0.71484,0.93359 1.1484,1.9766 1.3906,3.0547 2.125,3.5664 4.5195,6.9648 6.3984,10.676 9.8398,-13.301 27.793,-32.625 49.512,-33.746 16.172,-0.91797 30.875,8.1484 43.84,26.672 11.465,16.395 14.289,31.977 8.3984,46.344 -13.379,32.605 -67.57,45.406 -80.457,48.035 -1.8398,1.5117 -4.3281,2.8828 -6.4727,4.3281 9.9297,8.9414 20.848,22.363 22.184,38.977 1.1602,14.578 -5.0859,28.828 -18.59,42.32 -0.51172,0.50391 -1.0938,0.94531 -1.7188,1.2969 -0.62891,0.34766 -11.898,6.5547 -25.781,6.5547 -4.582,0 -9.4531,-0.67578 -14.316,-2.457 -12.246,-4.5039 -21.402,-14.75 -27.203,-30.449 -6.5977,-17.84 -16.41,-24.324 -22.535,-26.715 -29.133,4.9219 -62.137,7.75 -97.277,7.75 -35.91,0 -69.578,-2.9648 -99.199,-8.0859 -8.2227,3.2773 -15.727004,12.898 -21.176004,27.672 -7.1328,19.316 -17.594,30.777 -31.07,34.027 -2.5703,0.61719 -5.125,0.91016 -7.6562,0.91016 -12.102,0 -23.625,-6.418 -31.129,-13.301 -13.9219999,-12.758 -20.2229999,-26.547 -18.73399987,-40.969 1.73439997,-16.852 13.95699987,-30.062 23.06199987,-37.727 z m 212.000004,-18.695 27.695,-63.324 -32.094,-26.25 -23.25,22.402 c -1.5078,1.4609 -3.5,2.2148 -5.4922,2.2148 -1.4883,0 -2.9766,-0.41406 -4.293,-1.2578 l -36.758,-23.664 -27.973,30.57 31.414,59.312 z m 76.906,-30.945 c -1.4219,1.082 -3.1133,1.625 -4.8047,1.625 -1.7773,0 -3.5586,-0.59766 -5.0156,-1.7891 l -26.652,-21.801 -23.141,52.91 h 79.465 l -14.277,-35.203 z m -190.42,-15.965 -7.2227,7.8945 c -1.5273,1.6836 -3.6758,2.5703 -5.8398,2.5703 -1.1797,0 -2.3789,-0.26172 -3.5,-0.8125 l -23.168004,-11.402 -20.391,48.66 h 84.957004 z m -76.930004,46.91 c 0.10156,-0.5625 0.10547,-1.1328 0.33594,-1.6836 l 22.617,-53.988 -21.129,-10.402 c -10.316,20.148 -16.68,42.453 -17.824,66.07 z m 9.7148,-79.84 52.312004,25.754 40.719,-44.492 -46.324,-29.824 c -18.676004,13.125 -34.594004,29.59 -46.707004,48.562 z m 61.488004,-57.895 85.117,54.801 69.25,-66.723 c -20.027,-7.5195 -41.77,-11.742 -64.555,-11.742 -32.773,0 -63.422,8.7344 -89.812,23.664 z m 170.16,-5.1445 -43.828,42.23 65.18,53.316 47.219,-36.09 c -16.949,-25.141 -40.559,-45.773 -68.57,-59.457 z m 76.84,73.07 -32.227,24.633 18.324,45.172 h 33.734 c -1.2188,-25.098 -8.3516,-48.695 -19.832,-69.805 z m 103.66,30.32 c 3.7695,-9.1719 1.5664,-19.402 -6.7188,-31.242 -9.2695,-13.262 -18.996,-19.973 -28.914,-19.973 -0.37891,0 -0.74609,0.0117 -1.1094,0.0312 -18.008,0.91016 -35.516,23.191 -42.824,34.906 6.5742,17.168 10.566,35.508 11.531,54.609 18.25,-3.832 59.102,-16.555 68.035,-38.332 z m -122.86,109.13 c 4.1094,11.098 10.074,18.195 17.738,21.035 10.789,4.0977 22.785,-0.96875 26.102,-2.5703 9.4727,-9.7656 13.891,-19.508 13.129,-28.98 -1.082,-13.629 -12.457,-25.109 -21.059,-31.934 -14.023,6.7227 -31.34,12.535 -51.637,17.082 5.7188,5.6406 11.402,13.648 15.727,25.367 z m 23.43,-53.789 H 51.148856 c 35.863,14.906 95.082004,24.457 158.020004,24.457 64.102,0.004 122.59,-9.3945 158.09,-24.457 z m -337.600004,69.855 c 5.7812,5.3164 15.562,10.711 24.34,8.6797 10.016,-2.418 16.375,-14.461 19.953,-24.129 4.4648,-12.117 9.7773,-20.434 15.133,-26.27 -19.914,-4.5195 -37.047,-10.211 -50.871,-16.828 -6.4609,4.6523 -20.754,16.453 -22.242,30.859 -0.94922,9.1836 3.6523,18.484 13.688,27.688 z"
       id="path70"
       inkscape:connector-curvature="0" />
    <path
       d="m 434.53006,100.58929 c 6.957,0 12.594,5.6406 12.594,12.594 0,6.957 -5.6367,12.594 -12.594,12.594 -6.957,0 -12.594,-5.6406 -12.594,-12.594 0,-6.9531 5.6367,-12.594 12.594,-12.594 z"
       id="path72"
       inkscape:connector-curvature="0" />
  </g>
</svg>
